<?xml version="1.0" standalone="no"?>
<!DOCTYPE svg PUBLIC "-//W3C//DTD SVG 20010904//EN"
 "http://www.w3.org/TR/2001/REC-SVG-20010904/DTD/svg10.dtd">
<svg version="1.0" xmlns="http://www.w3.org/2000/svg"
 width="256.000000pt" height="256.000000pt" viewBox="0 0 256.000000 256.000000"
 preserveAspectRatio="xMidYMid meet">
<metadata>
Created by potrace 1.14, written by Peter Selinger 2001-2017
</metadata>
<g transform="translate(0.000000,256.000000) scale(0.100000,-0.100000)"
fill="#000000" stroke="none">
<path d="M974 2097 c-93 -74 -244 -215 -244 -228 0 -5 10 -7 23 -4 143 31 595
38 757 11 14 -2 48 -7 75 -11 28 -3 66 -9 85 -11 19 -3 67 -12 105 -20 39 -9
77 -17 85 -19 58 -12 238 -64 315 -90 47 -16 -144 100 -262 159 -228 115 -470
199 -708 246 -60 11 -119 23 -131 25 -14 3 -45 -15 -100 -58z"/>
<path d="M1178 1746 c-1 -2 -46 -6 -98 -10 -52 -3 -104 -8 -115 -10 -11 -2
-45 -7 -75 -10 -213 -25 -505 -104 -735 -201 -60 -25 -113 -49 -118 -54 -7 -7
92 -128 190 -230 24 -25 43 -47 43 -51 0 -3 -13 -43 -30 -87 -51 -142 -92
-325 -105 -478 -11 -119 -12 -165 -3 -165 4 0 8 4 8 8 0 11 193 207 277 281
247 218 559 410 863 533 41 17 89 36 105 43 17 7 71 25 120 40 50 15 108 33
131 40 47 16 256 60 329 70 28 4 61 9 75 11 107 15 226 23 375 24 l110 0 -41
19 c-165 75 -509 170 -709 196 -27 4 -63 8 -80 10 -89 12 -168 17 -332 20
-100 2 -183 2 -185 1z"/>
</g>
</svg>
